<?xml version="1.0" encoding="utf-8"?>
<!-- Generator: Adobe Illustrator 16.0.0, SVG Export Plug-In . SVG Version: 6.00 Build 0)  -->
<!DOCTYPE svg PUBLIC "-//W3C//DTD SVG 1.0//EN" "http://www.w3.org/TR/2001/REC-SVG-20010904/DTD/svg10.dtd">
<svg version="1.0" id="Layer_1" xmlns="http://www.w3.org/2000/svg" xmlns:xlink="http://www.w3.org/1999/xlink" x="0px" y="0px"
	 width="72px" height="72px" viewBox="0 0 72 72" enable-background="new 0 0 72 72" xml:space="preserve">
<g>
	<path fill="#888888" d="M36,0C16.118,0,0,16.117,0,36s16.118,36,36,36s36-16.117,36-36S55.882,0,36,0z M38.386,57.521
		c-1.069,1.031-2.544,1.514-4.202,1.508c-0.014,0.001-0.026,0.001-0.038,0.001c-1.58,0-3.001-0.496-4.049-1.506
		c-1.072-1.014-1.607-2.433-1.599-4.003c-0.01-1.568,0.525-2.987,1.605-3.981c1.059-0.994,2.49-1.477,4.079-1.471
		c1.652-0.006,3.119,0.466,4.193,1.471c1.08,0.994,1.615,2.413,1.605,3.981C39.993,55.092,39.458,56.511,38.386,57.521z
		 M48.021,29.988c-0.562,1.393-1.27,2.602-2.127,3.612c-0.828,0.972-1.74,1.834-2.737,2.58c-0.897,0.674-1.719,1.393-2.46,2.149
		c-0.711,0.733-1.316,1.576-1.82,2.551c-0.449,0.857-0.709,2.045-0.709,3.577v1h-7.496h-0.909l-0.087-0.905
		c-0.067-0.706-0.104-1.379-0.104-2.023c0-1.29,0.135-2.464,0.426-3.515c0.412-1.512,0.988-2.839,1.74-3.979
		c0.729-1.104,1.57-2.074,2.521-2.898c0.873-0.757,1.685-1.479,2.437-2.174c0.713-0.654,1.293-1.328,1.75-2.015
		c0.386-0.582,0.59-1.274,0.596-2.169c-0.008-1.188-0.313-1.985-0.878-2.6c-0.438-0.498-1.506-0.915-3.335-0.907
		c-0.553,0-1.152,0.059-1.797,0.183c-0.652,0.13-1.307,0.312-1.961,0.547c-0.665,0.24-1.299,0.515-1.901,0.827
		c-0.613,0.315-1.152,0.636-1.619,0.956l-0.933,0.645l-3.859-7.411l0.732-0.501c1.565-1.072,3.356-1.95,5.363-2.64
		c2.067-0.708,4.51-1.048,7.32-1.048c3.819-0.003,6.958,0.933,9.257,2.906c2.295,1.953,3.467,4.701,3.452,7.931
		C48.883,26.747,48.61,28.518,48.021,29.988z"/>
</g>
</svg>
