<?xml version="1.0" encoding="utf-8"?>
<!-- Generator: Adobe Illustrator 16.0.0, SVG Export Plug-In . SVG Version: 6.00 Build 0)  -->
<!DOCTYPE svg PUBLIC "-//W3C//DTD SVG 1.0//EN" "http://www.w3.org/TR/2001/REC-SVG-20010904/DTD/svg10.dtd">
<svg version="1.0" id="Layer_1" xmlns="http://www.w3.org/2000/svg" xmlns:xlink="http://www.w3.org/1999/xlink" x="0px" y="0px"
	 width="72px" height="72px" viewBox="0 0 72 72" enable-background="new 0 0 72 72" xml:space="preserve">
<g>
	<path fill="#888888" d="M36,0C16.118,0,0,16.117,0,36s16.118,36,36,36s36-16.117,36-36S55.882,0,36,0z M31.657,54.572
		L19.678,42.574h-6.072V30.538h6.033v-0.022l12.019-12.04L31.657,54.572L31.657,54.572z M36.307,44l-1.844-3.615v-0.014
		c1.141-0.924,1.884-2.32,1.884-3.897c0-1.58-0.743-2.972-1.884-3.898V32.49l1.815-3.562c2.45,1.616,4.071,4.389,4.071,7.546
		C40.351,39.619,38.742,42.383,36.307,44z M38.613,48.525v-0.01c4.14-2.424,6.936-6.906,6.936-12.042
		c0-5.135-2.796-9.617-6.936-12.042v-0.085l1.79-3.513c5.458,3.082,9.147,8.925,9.147,15.64c0,6.702-3.678,12.538-9.119,15.625
		L38.613,48.525z M44.558,60.188l-1.822-3.572c7.038-3.965,11.808-11.504,11.808-20.141c0-8.649-4.78-16.199-11.837-20.16
		l1.82-3.572c8.354,4.618,14.021,13.507,14.021,23.732C58.548,46.686,52.896,55.564,44.558,60.188z"/>
</g>
</svg>
