<?xml version="1.0" encoding="utf-8"?>
<!-- Generator: Adobe Illustrator 16.0.0, SVG Export Plug-In . SVG Version: 6.00 Build 0)  -->
<!DOCTYPE svg PUBLIC "-//W3C//DTD SVG 1.0//EN" "http://www.w3.org/TR/2001/REC-SVG-20010904/DTD/svg10.dtd">
<svg version="1.0" id="Layer_1" xmlns="http://www.w3.org/2000/svg" xmlns:xlink="http://www.w3.org/1999/xlink" x="0px" y="0px"
	 width="72px" height="72px" viewBox="0 0 72 72" enable-background="new 0 0 72 72" xml:space="preserve">
<g>
	<path fill="#888888" d="M36,0C16.118,0,0,16.117,0,36s16.118,36,36,36s36-16.117,36-36S55.882,0,36,0z M38.181,52.247
		c-2.247,0.252-4.445,0.229-6.549-0.027c-7.326,7.568-15.179,6.056-13.624,4.884c3.806-2.867,4.613-5.668,4.372-7.865
		c-4.892-2.78-8.271-7.185-8.886-12.43c-1.163-9.919,8.006-19.093,20.478-20.487c12.473-1.396,23.523,5.518,24.686,15.438
		C59.82,41.68,50.652,50.853,38.181,52.247z"/>
</g>
</svg>
