<?xml version="1.0" encoding="utf-8"?>
<!-- Generator: Adobe Illustrator 16.0.0, SVG Export Plug-In . SVG Version: 6.00 Build 0)  -->
<!DOCTYPE svg PUBLIC "-//W3C//DTD SVG 1.1//EN" "http://www.w3.org/Graphics/SVG/1.1/DTD/svg11.dtd">
<svg version="1.1" id="Layer_1" xmlns="http://www.w3.org/2000/svg" xmlns:xlink="http://www.w3.org/1999/xlink" x="0px" y="0px"
	 width="34.016px" height="34.016px" viewBox="0 0 34.016 34.016" enable-background="new 0 0 34.016 34.016" xml:space="preserve">
<path fill="#36609F" d="M17.008,1.008c-8.836,0-16,7.164-16,16c0,8.837,7.164,15.999,16,15.999c8.836,0,16-7.162,16-15.999
	C33.008,8.172,25.844,1.008,17.008,1.008z M20.436,17.014h-2.242c0,3.581,0,7.993,0,7.993h-3.323c0,0,0-4.367,0-7.993h-1.58V14.19
	h1.58v-1.828c0-1.309,0.621-3.354,3.352-3.354l2.461,0.01v2.742c0,0-1.496,0-1.785,0c-0.291,0-0.705,0.145-0.705,0.77v1.66h2.533
	L20.436,17.014z"/>
</svg>
