<?xml version="1.0" encoding="utf-8"?>
<!-- Generator: Adobe Illustrator 16.0.0, SVG Export Plug-In . SVG Version: 6.00 Build 0)  -->
<!DOCTYPE svg PUBLIC "-//W3C//DTD SVG 1.0//EN" "http://www.w3.org/TR/2001/REC-SVG-20010904/DTD/svg10.dtd">
<svg version="1.0" id="Layer_1" xmlns="http://www.w3.org/2000/svg" xmlns:xlink="http://www.w3.org/1999/xlink" x="0px" y="0px"
	 width="72px" height="72px" viewBox="0 0 72 72" enable-background="new 0 0 72 72" xml:space="preserve">
<g>
	<path fill="#888888" d="M36,0C16.118,0,0,16.117,0,36s16.118,36,36,36s36-16.117,36-36S55.882,0,36,0z M53.255,41.191
		L35.878,58.514L18.502,41.191c0,0-5.794-5.418-5.794-11.586c0-8.689,5.632-11.639,11.532-11.639c5.899,0,11.638,7.078,11.638,7.078
		s5.739-7.078,11.64-7.078c5.899,0,11.531,2.949,11.531,11.639C59.049,35.773,53.255,41.191,53.255,41.191z"/>
</g>
</svg>
