<?xml version="1.0" encoding="utf-8"?>
<!-- Generator: Adobe Illustrator 16.0.0, SVG Export Plug-In . SVG Version: 6.00 Build 0)  -->
<!DOCTYPE svg PUBLIC "-//W3C//DTD SVG 1.1//EN" "http://www.w3.org/Graphics/SVG/1.1/DTD/svg11.dtd">
<svg version="1.1" id="Layer_1" xmlns="http://www.w3.org/2000/svg" xmlns:xlink="http://www.w3.org/1999/xlink" x="0px" y="0px"
	 width="34.016px" height="34.016px" viewBox="0 0 34.016 34.016" enable-background="new 0 0 34.016 34.016" xml:space="preserve">
<path fill="#414042" d="M17.008,1.008c-8.836,0-16,7.164-16,16c0,8.838,7.164,16,16,16s16-7.162,16-16
	C33.008,8.172,25.844,1.008,17.008,1.008z M24.475,17.195l-0.277,0.781c-0.68,1.492-1.993,2.149-4.058,2.459
	c-0.253,0.037-0.518,0.07-0.793,0.099c0.818,0.515,1.054,1.161,1.054,2.91s-0.023,1.983-0.019,2.386
	c0.009,0.66,0.977,0.977,0.939,1.188c-0.036,0.213-0.81,0.179-1.17,0.052c-1.024-0.356-0.922-1.208-0.922-1.208l-0.033-2.339
	c0,0,0.069-1.259-0.396-1.259v3.827c0,0.832,0.582,1.085,0.582,1.393c0,0.528-1.063-0.05-1.392-0.38
	c-0.5-0.501-0.443-1.565-0.431-2.407c0.011-0.812-0.007-2.588-0.007-2.588l-0.339,0.006c0,0,0.139,3.882-0.179,4.589
	c-0.411,0.909-1.651,1.221-1.651,0.808c0-0.278,0.306-0.189,0.474-0.813c0.145-0.53,0.095-4.487,0.095-4.487
	s-0.397,0.234-0.397,0.976c0,0.339-0.009,2.277-0.009,2.854c0,0.725-1.031,1.138-1.526,1.138c-0.25,0-0.562-0.012-0.562-0.146
	c0-0.335,0.941-0.532,0.941-1.229c0-0.606-0.013-2.162-0.013-2.162s-0.475,0.082-1.153,0.082c-1.708,0-2.248-1.091-2.505-1.701
	c-0.335-0.794-0.769-1.167-1.23-1.466c-0.283-0.184-0.348-0.398-0.021-0.46c1.512-0.286,1.898,1.714,2.909,2.032
	c0.72,0.228,1.647,0.13,2.108-0.169c0.061-0.61,0.501-1.139,0.868-1.417c-0.023-0.002-0.047-0.004-0.069-0.007
	c-2.527-0.256-4.029-1.146-4.812-2.565l-0.341-0.779c-0.248-0.728-0.357-1.562-0.357-2.493c0-1.653,0.516-2.276,1.207-3.158
	c-0.528-1.884,0.19-3.172,0.19-3.172s1.112-0.231,3.213,1.274c1.139-0.488,4.175-0.528,5.612-0.108
	c0.881-0.583,2.494-1.41,3.146-1.178c0.176,0.284,0.555,1.11,0.23,2.927c0.221,0.399,1.369,1.248,1.373,3.647
	C24.738,15.816,24.646,16.563,24.475,17.195z"/>
</svg>
