<?xml version="1.0" encoding="utf-8"?>
<!-- Generator: Adobe Illustrator 16.0.0, SVG Export Plug-In . SVG Version: 6.00 Build 0)  -->
<!DOCTYPE svg PUBLIC "-//W3C//DTD SVG 1.0//EN" "http://www.w3.org/TR/2001/REC-SVG-20010904/DTD/svg10.dtd">
<svg version="1.0" id="Layer_1" xmlns="http://www.w3.org/2000/svg" xmlns:xlink="http://www.w3.org/1999/xlink" x="0px" y="0px"
	 width="32px" height="32px" viewBox="8 8 32 32" enable-background="new 8 8 32 32" xml:space="preserve">
<g>
	<path fill="#FFFFFF" d="M24.959,22.825v-0.033c-0.006,0.012-0.014,0.023-0.021,0.033H24.959z"/>
	<path fill="#FFFFFF" d="M24,8C15.164,8,8,15.164,8,24c0,8.838,7.164,16,16,16s16-7.162,16-16C40,15.164,32.836,8,24,8z"/>
</g>
<path fill="#E6E7E8" d="M29.074,16.896h2.029V21.3l-2.029-2.32V16.896z M30.089,24L24,17.042L17.911,24h-2.03l7.104-8.119h2.029
	L32.118,24H30.089z M30.089,25.312v6.807h-4.06v-5.073c0-0.562-0.453-1.016-1.015-1.016h-2.029c-0.561,0-1.015,0.454-1.015,1.016
	v5.073h-4.059v-6.808L24,18.582L30.089,25.312z"/>
</svg>
