<?xml version="1.0" encoding="utf-8"?>
<!-- Generator: Adobe Illustrator 16.0.0, SVG Export Plug-In . SVG Version: 6.00 Build 0)  -->
<!DOCTYPE svg PUBLIC "-//W3C//DTD SVG 1.1//EN" "http://www.w3.org/Graphics/SVG/1.1/DTD/svg11.dtd">
<svg version="1.1" id="Layer_1" xmlns="http://www.w3.org/2000/svg" xmlns:xlink="http://www.w3.org/1999/xlink" x="0px" y="0px"
	 width="34.016px" height="34.016px" viewBox="0 0 34.016 34.016" enable-background="new 0 0 34.016 34.016" xml:space="preserve">
<g>
	<path fill="#0A6C9B" d="M17.966,15.833v-0.033c-0.006,0.012-0.014,0.023-0.021,0.033H17.966z"/>
	<path fill="#0A6C9B" d="M17.007,1.008c-8.836,0-16,7.164-16,16c0,8.838,7.164,16,16,16s16-7.162,16-16
		C33.007,8.172,25.843,1.008,17.007,1.008z M12.64,24.655H9.21V14.338h3.43V24.655z M10.925,12.928h-0.023
		c-1.15,0-1.895-0.793-1.895-1.783c0-1.012,0.768-1.783,1.939-1.783c1.174,0,1.896,0.771,1.918,1.783
		C12.865,12.135,12.121,12.928,10.925,12.928z M25.007,24.655h-3.43v-5.52c0-1.387-0.496-2.334-1.738-2.334
		c-0.945,0-1.512,0.641-1.76,1.256c-0.09,0.221-0.113,0.525-0.113,0.836v5.762h-3.428c0,0,0.043-9.35,0-10.316h3.428v1.461
		c0.457-0.705,1.271-1.703,3.092-1.703c2.256,0,3.949,1.473,3.949,4.643V24.655z"/>
</g>
</svg>
