<?xml version="1.0" encoding="utf-8"?>
<!-- Generator: Adobe Illustrator 16.0.0, SVG Export Plug-In . SVG Version: 6.00 Build 0)  -->
<!DOCTYPE svg PUBLIC "-//W3C//DTD SVG 1.0//EN" "http://www.w3.org/TR/2001/REC-SVG-20010904/DTD/svg10.dtd">
<svg version="1.0" id="Layer_1" xmlns="http://www.w3.org/2000/svg" xmlns:xlink="http://www.w3.org/1999/xlink" x="0px" y="0px"
	 width="72px" height="72px" viewBox="0 0 72 72" enable-background="new 0 0 72 72" xml:space="preserve">
<g>
	<path fill="#888888" d="M36,0C16.118,0,0,16.117,0,36s16.118,36,36,36s36-16.117,36-36S55.882,0,36,0z M23.323,38.898l-7.72-7.721
		c-2.697-2.696-2.697-7.069,0-9.766l5.302-5.301c2.696-2.697,7.067-2.697,9.765,0l7.723,7.72c2.565,2.567,2.684,6.65,0.361,9.363
		l-3.709-3.709c0.321-0.646,0.225-1.454-0.316-1.992l-7.722-7.72c-0.673-0.673-1.767-0.673-2.438,0l-5.302,5.301
		c-0.674,0.673-0.674,1.769,0,2.442l7.721,7.72c0.524,0.526,1.304,0.635,1.941,0.341l3.721,3.72
		C29.936,41.582,25.878,41.453,23.323,38.898z M45.586,42.469c1.012,1.011,1.013,2.651,0,3.662c-1.011,1.012-2.649,1.01-3.663,0
		L26.125,30.333c-1.01-1.012-1.01-2.651,0.001-3.663c1.014-1.01,2.65-1.011,3.662,0L45.586,42.469z M56.342,51.547l-5.303,5.302
		c-2.697,2.696-7.068,2.696-9.765,0l-7.721-7.72c-2.557-2.557-2.687-6.613-0.399-9.325l3.721,3.72
		c-0.294,0.639-0.185,1.418,0.341,1.942l7.721,7.72c0.673,0.674,1.768,0.674,2.441,0l5.302-5.301c0.674-0.672,0.674-1.769,0-2.441
		l-7.721-7.72c-0.539-0.54-1.345-0.64-1.992-0.315l-3.71-3.711c2.715-2.32,6.798-2.203,9.364,0.364l7.721,7.721
		C59.037,44.479,59.037,48.85,56.342,51.547z"/>
</g>
</svg>
