<?xml version="1.0" encoding="utf-8"?>
<!-- Generator: Adobe Illustrator 16.0.0, SVG Export Plug-In . SVG Version: 6.00 Build 0)  -->
<!DOCTYPE svg PUBLIC "-//W3C//DTD SVG 1.0//EN" "http://www.w3.org/TR/2001/REC-SVG-20010904/DTD/svg10.dtd">
<svg version="1.0" id="Layer_1" xmlns="http://www.w3.org/2000/svg" xmlns:xlink="http://www.w3.org/1999/xlink" x="0px" y="0px"
	 width="72px" height="72px" viewBox="0 0 72 72" enable-background="new 0 0 72 72" xml:space="preserve">
<g>
	<path fill="#888888" d="M36,0C16.118,0,0,16.117,0,36s16.118,36,36,36s36-16.117,36-36S55.882,0,36,0z M58.358,50.853
		c0,0.734-0.602,1.335-1.334,1.335H14.803c-0.734,0-1.336-0.601-1.336-1.335V25.517c0-0.734,0.602-1.334,1.336-1.334h9.312
		c0.008-0.015,0.01-0.027,0.016-0.041l1.276-2.549c0.33-0.656,1.199-1.194,1.933-1.194h17.127c0.734,0,1.604,0.538,1.933,1.194
		l1.276,2.549c0.007,0.014,0.01,0.026,0.017,0.041h9.333c0.732,0,1.334,0.6,1.334,1.334L58.358,50.853L58.358,50.853z"/>
	<circle fill="#888888" cx="35.875" cy="37.994" r="9.689"/>
</g>
</svg>
