<?xml version="1.0" encoding="utf-8"?>
<!-- Generator: Adobe Illustrator 16.0.0, SVG Export Plug-In . SVG Version: 6.00 Build 0)  -->
<!DOCTYPE svg PUBLIC "-//W3C//DTD SVG 1.0//EN" "http://www.w3.org/TR/2001/REC-SVG-20010904/DTD/svg10.dtd">
<svg version="1.0" id="Layer_1" xmlns="http://www.w3.org/2000/svg" xmlns:xlink="http://www.w3.org/1999/xlink" x="0px" y="0px"
	 width="72px" height="72px" viewBox="0 0 72 72" enable-background="new 0 0 72 72" xml:space="preserve">
<g>
	<path fill="#888888" d="M36,0C16.118,0,0,16.117,0,36s16.118,36,36,36s36-16.117,36-36S55.882,0,36,0z M32.675,26.389
		c-4.649,0-6.406,3.205-6.406,10.024l-0.196,0.052h4.31c1.259,0,2.288,1.03,2.288,2.29v13.309c0,1.26-1.029,2.29-2.288,2.29H18.813
		c-1.263,0-2.29-1.03-2.29-2.29V38.755c0-0.118,0.018-0.231,0.036-0.344c0.078-10.103,2.328-19.271,16.114-20.081L32.675,26.389
		L32.675,26.389z M55.372,26.389c-4.649,0-6.409,3.205-6.409,10.024l-0.193,0.052h4.308c1.259,0,2.289,1.03,2.289,2.29v13.309
		c0,1.26-1.03,2.29-2.289,2.29H41.51c-1.261,0-2.289-1.03-2.289-2.29V38.755c0-0.118,0.019-0.231,0.035-0.344
		c0.078-10.103,2.328-19.271,16.116-20.081V26.389z"/>
</g>
</svg>
