<?xml version="1.0" encoding="utf-8"?>
<!-- Generator: Adobe Illustrator 16.0.0, SVG Export Plug-In . SVG Version: 6.00 Build 0)  -->
<!DOCTYPE svg PUBLIC "-//W3C//DTD SVG 1.0//EN" "http://www.w3.org/TR/2001/REC-SVG-20010904/DTD/svg10.dtd">
<svg version="1.0" id="Layer_1" xmlns="http://www.w3.org/2000/svg" xmlns:xlink="http://www.w3.org/1999/xlink" x="0px" y="0px"
	 width="72px" height="72px" viewBox="0 0 72 72" enable-background="new 0 0 72 72" xml:space="preserve">
<g>
	<path fill="#888888" d="M36,0C16.118,0,0,16.117,0,36s16.118,36,36,36s36-16.117,36-36S55.882,0,36,0z M22.804,54.252
		c-2.652,0-4.802-2.148-4.802-4.8c0-2.653,2.149-4.802,4.802-4.802c2.65,0,4.803,2.148,4.803,4.802
		C27.606,52.104,25.455,54.252,22.804,54.252z M34.845,54.261c-0.046-4.466-1.79-8.655-4.932-11.812
		c-3.179-3.195-7.408-4.952-11.907-4.952v-6.933c13.051,0,23.675,10.614,23.771,23.696L34.845,54.261L34.845,54.261z M47.09,54.261
		c-0.099-16.036-13.101-29.052-29.072-29.052v-6.931c19.796,0,35.906,16.124,36.006,35.983H47.09z"/>
</g>
</svg>
