<?xml version="1.0" encoding="utf-8"?>
<!-- Generator: Adobe Illustrator 16.0.0, SVG Export Plug-In . SVG Version: 6.00 Build 0)  -->
<!DOCTYPE svg PUBLIC "-//W3C//DTD SVG 1.0//EN" "http://www.w3.org/TR/2001/REC-SVG-20010904/DTD/svg10.dtd">
<svg version="1.0" id="Layer_1" xmlns="http://www.w3.org/2000/svg" xmlns:xlink="http://www.w3.org/1999/xlink" x="0px" y="0px"
	 width="72px" height="72px" viewBox="0 0 72 72" enable-background="new 0 0 72 72" xml:space="preserve">
<g>
	<path fill="#888888" d="M31.116,22.618c-4.705,0.009-8.527,3.834-8.535,8.539c0.008,4.701,3.83,8.527,8.535,8.535
		c4.701-0.008,8.526-3.833,8.535-8.535C39.643,26.452,35.817,22.627,31.116,22.618z"/>
	<path fill="#888888" d="M36,0C16.118,0,0,16.117,0,36c0,19.882,16.118,36,36,36s36-16.117,36-36S55.882,0,36,0z M55.018,55.035
		c-0.642,0.639-1.495,0.949-2.336,0.949c-0.004,0-0.009,0-0.013,0c-0.963,0-1.929-0.389-2.67-1.127L39.259,44.113
		c-2.357,1.484-5.152,2.346-8.143,2.346c-8.452,0-15.307-6.852-15.307-15.302c0-8.455,6.854-15.309,15.307-15.309
		s15.303,6.854,15.306,15.309c0,2.973-0.854,5.756-2.325,8.103l10.753,10.752c0.734,0.738,1.123,1.707,1.123,2.67
		C55.975,53.527,55.667,54.385,55.018,55.035z"/>
</g>
</svg>
