<?xml version="1.0" encoding="utf-8"?>
<!-- Generator: Adobe Illustrator 16.0.0, SVG Export Plug-In . SVG Version: 6.00 Build 0)  -->
<!DOCTYPE svg PUBLIC "-//W3C//DTD SVG 1.0//EN" "http://www.w3.org/TR/2001/REC-SVG-20010904/DTD/svg10.dtd">
<svg version="1.0" id="Layer_1" xmlns="http://www.w3.org/2000/svg" xmlns:xlink="http://www.w3.org/1999/xlink" x="0px" y="0px"
	 width="72px" height="72px" viewBox="0 0 72 72" enable-background="new 0 0 72 72" xml:space="preserve">
<path fill="#888888" d="M68.439,35.537L36.099,3.194c-0.778-0.774-2.302-1.49-3.391-1.588L15.211,0.012
	c-1.092-0.1-2.618,0.451-3.388,1.227L7.832,5.23c-0.773,0.776-1.327,2.3-1.229,3.388l1.558,17.538
	c0.098,1.091,0.81,2.615,1.583,3.389l32.342,32.344c0.773,0.773,2.041,0.773,2.814,0L68.438,38.35
	C69.209,37.577,69.209,36.309,68.439,35.537z M17.078,14.919c-2.383,0-4.315-1.932-4.315-4.315c0-2.382,1.932-4.314,4.315-4.314
	c2.382,0,4.314,1.932,4.314,4.314C21.393,12.987,19.46,14.919,17.078,14.919z"/>
</svg>
