<?xml version="1.0" encoding="utf-8"?>
<!-- Generator: Adobe Illustrator 16.0.0, SVG Export Plug-In . SVG Version: 6.00 Build 0)  -->
<!DOCTYPE svg PUBLIC "-//W3C//DTD SVG 1.0//EN" "http://www.w3.org/TR/2001/REC-SVG-20010904/DTD/svg10.dtd">
<svg version="1.0" id="Layer_1" xmlns="http://www.w3.org/2000/svg" xmlns:xlink="http://www.w3.org/1999/xlink" x="0px" y="0px"
	 width="72px" height="72px" viewBox="0 0 72 72" enable-background="new 0 0 72 72" xml:space="preserve">
<g>
	<path fill="#888888" d="M36,0C16.118,0,0,16.117,0,36s16.118,36,36,36s36-16.117,36-36S55.882,0,36,0z M50.104,56.394
		c-1.918,0.902-3.658,1.537-5.215,1.902c-1.56,0.362-3.242,0.546-5.052,0.546c-2.055,0-3.267-0.259-4.845-0.774
		c-1.578-0.522-2.925-1.266-4.038-2.22c-1.117-0.962-1.888-1.982-2.32-3.063c-0.431-1.081-0.646-2.652-0.646-4.708v-15.76h-6.104
		v-6.363c1.766-0.572,3.812-1.395,5.067-2.464c1.262-1.074,2.271-2.356,3.033-3.859c0.763-1.499,1.288-3.41,1.574-5.728h6.391
		v10.394h10.39v8.021H37.95v11.523c0,2.606-0.034,4.109,0.243,4.849c0.272,0.735,0.962,1.499,1.711,1.94
		c0.996,0.596,2.13,0.894,3.41,0.894c2.274,0,4.539-0.739,6.789-2.217L50.104,56.394L50.104,56.394z"/>
</g>
</svg>
