<?xml version="1.0" encoding="utf-8"?>
<!-- Generator: Adobe Illustrator 16.0.0, SVG Export Plug-In . SVG Version: 6.00 Build 0)  -->
<!DOCTYPE svg PUBLIC "-//W3C//DTD SVG 1.0//EN" "http://www.w3.org/TR/2001/REC-SVG-20010904/DTD/svg10.dtd">
<svg version="1.0" id="Layer_1" xmlns="http://www.w3.org/2000/svg" xmlns:xlink="http://www.w3.org/1999/xlink" x="0px" y="0px"
	 width="72px" height="72px" viewBox="0 0 72 72" enable-background="new 0 0 72 72" xml:space="preserve">
<g>
	<path fill="#888888" d="M36,0C16.118,0,0,16.117,0,36s16.118,36,36,36s36-16.117,36-36S55.882,0,36,0z M58.506,48.503
		l-12.632-5.921l-0.001-0.076v5.556c0,1.328-1.087,2.416-2.416,2.416H16.009c-1.327,0-2.416-1.088-2.416-2.416V24.736
		c0-1.328,1.089-2.415,2.416-2.415h27.448c1.329,0,2.416,1.087,2.416,2.415v5.627l12.633-5.975V48.503z"/>
</g>
</svg>
